PathFileType	4	(X/Y/Z)	Patient4_TMGait_0pt2_03_right_14.trc.trc
DataRate	CameraRate	NumFrames	NumMarkers	Units	OrigDataRate	OrigDataStartFrame	OrigNumFrames
43.887147335423	43.887147335423	4	33	mm	43.887147335423	53	       141
Frame#	Time	Sacral			L.Shoulder			Chest			R.Shoulder			Neck			R.ASIS			L.ASIS			R.Thigh.Superior			R.Thigh.Lateral			R.Thigh.Inferior			R.Patella			L.Thigh.Superior			L.Thigh.Lateral			L.Thigh.Inferior			L.Patella			L.Shank.Superior			L.Shank.Lateral			L.Shank.Inferior			R.Shank.Superior			R.Shank.Lateral			R.Shank.Inferior			R.Heel			R.Midfoot.Superior			R.Midfoot.Lateral			R.Toe			L.Heel			L.Midfoot.Lateral			L.Midfoot.Superior			L.Toe			L.Elbow			L.Wrist			R.Elbow			R.Wrist			
		X1	Y1	Z1	X2	Y2	Z2	X3	Y3	Z3	X4	Y4	Z4	X5	Y5	Z5	X6	Y6	Z6	X7	Y7	Z7	X8	Y8	Z8	X9	Y9	Z9	X10	Y10	Z10	X11	Y11	Z11	X12	Y12	Z12	X13	Y13	Z13	X14	Y14	Z14	X15	Y15	Z15	X16	Y16	Z16	X17	Y17	Z17	X18	Y18	Z18	X19	Y19	Z19	X20	Y20	Z20	X21	Y21	Z21	X22	Y22	Z22	X23	Y23	Z23	X24	Y24	Z24	X25	Y25	Z25	X26	Y26	Z26	X27	Y27	Z27	X28	Y28	Z28	X29	Y29	Z29	X30	Y30	Z30	X31	Y31	Z31	X32	Y32	Z32	X33	Y33	Z33	

53	31.114857142857	855.988002481947	976.723974538370	618.952001631563	1028.042023129314	1402.442031044804	415.171356739549	1141.619626214030	1331.308942223392	567.269053846046	1078.524970323906	1411.688002361333	746.372278742857	1032.315133807900	1468.881729332314	570.807059457041	1100.535079154461	916.060601377455	707.580432265351	1053.140864613975	943.096327000703	438.555437354635	1163.635342894707	727.925344602099	652.871881808249	1106.884022853782	603.391502768380	707.881404819590	1178.235149662209	568.043336264476	612.465829759061	1189.967770666729	469.841449656491	611.208828900401	1157.923296464194	776.654594499193	466.525626833374	1122.749186305096	638.421358311668	383.788883714472	1236.288441564497	593.911469284808	454.187189622807	1257.823537133382	505.532439550419	440.141117057437	1196.437571317417	435.408463402114	422.317255108312	1059.119226130833	385.299438899686	369.498431143433	1061.416728458351	249.871677408779	407.734141959218	1141.503400487174	381.143967756588	618.759338393769	1058.953386509164	289.376515713428	686.700649902874	1069.111149290220	193.062340627277	617.437720019964	903.042367010195	45.432566335422	602.741049194196	1077.421173284873	95.853023501120	624.769585348886	991.061535732132	38.238566520196	671.038299156513	1198.534824645099	40.916967162779	646.590252120521	881.997557683698	162.310883058781	441.247073087683	938.759877083971	133.932191674599	353.795007672021	1042.263774768189	149.250930332878	372.745493168081	1128.017232152048	50.876610011257	326.837921593549	928.938709826857	1059.181071733134	313.550968703899	903.812276901210	799.150589646121	315.836852956702	1136.559649909729	1080.442160978198	895.722352086440	1368.940323080177	975.602348850812	857.917573564916	
54	31.137642857143	854.671985768707	975.867781917339	622.765347868305	1022.512980827416	1402.345345333179	416.873403975893	1138.873398624931	1330.931855322263	566.745038138808	1078.976901334658	1410.705609151638	747.111540343045	1029.067328749008	1468.364190663814	572.501657572278	1100.445053250838	915.451126998715	707.219068829719	1048.990264357558	942.877067478476	438.955280205038	1162.566734223261	726.835205866560	651.798052954514	1106.452015876432	602.396021775288	707.358453742990	1176.446262499279	567.110332773450	610.914639488981	1187.909042276152	468.765175316430	609.496108242534	1154.884954770954	777.561658875143	467.285145829295	1120.223593852109	638.712323296769	385.432886520008	1233.904743065573	595.308183382161	455.568735131555	1257.033343841569	508.259815854270	441.640120069325	1198.974517973384	436.913241609094	423.463568849163	1065.017277652655	379.583223616364	371.050747967623	1075.431860062403	244.623192506439	408.783269442493	1138.898986733198	380.148302219546	617.657449294489	1056.242726211305	288.846753012525	686.183357964520	1065.372334863141	192.492248315332	616.960033147932	898.469462784374	45.346917097040	602.843415371382	1072.868618059329	95.793004520980	624.646203045495	986.495176037235	38.190874624861	671.140420141288	1193.947292001066	40.869561603960	646.556864925291	902.332964492303	145.244366671961	442.770290315624	960.636325113533	122.232411233790	354.660037277355	1062.478493341120	144.458533201452	373.486077464205	1154.563936686745	53.321107190579	326.025022615562	912.275060473188	1063.373045060549	315.755880372900	875.731006664277	804.779656834260	321.665961150331	1153.007753142475	1081.563552620250	892.717153653981	1391.040799176748	993.729433277911	849.043678888375	
55	31.160428571429	853.292033258880	976.258645426632	626.256931384133	1016.911664627891	1403.401343116488	418.446001890809	1136.096683379183	1331.668997395228	565.945104266818	1079.511053419219	1410.842416059856	747.516031422000	1025.813608924257	1468.892690339452	573.989134158608	1100.107192826244	915.690513806382	706.475984257112	1044.673790357002	943.679197081157	439.012497042509	1160.403021392992	726.180229510828	650.689782946832	1104.397906977245	602.172603463880	707.053723529704	1172.891426639873	566.556604189768	609.716069817815	1183.804510394181	468.325773534956	608.284664149123	1150.901289579678	778.661014546271	467.355085130820	1115.823359643376	639.365435957215	386.370085212726	1229.509461571430	596.562480981010	455.882562793275	1254.021251430241	511.193807772250	442.161762363317	1199.773880937424	438.753694289848	423.804133650328	1070.189203555553	373.334202693089	371.510037225670	1089.547106221359	239.383234762634	409.053196613585	1134.647563641547	379.802890464961	616.986828813463	1052.285352964445	288.607008511601	686.004864795809	1060.925851824378	192.286446380516	616.737093172514	893.834365440835	45.205891165136	602.971272781744	1068.256019724446	95.753243734964	624.603992997046	981.883396104154	38.111399911483	671.276472237977	1189.307619610637	40.900979810818	646.500855278891	923.852908390329	127.897498776479	443.250329272706	983.869236314599	109.867028505162	354.906016746575	1083.672504066249	139.343031318120	373.747422330884	1182.198633579782	55.772411763153	325.771028184448	896.430962824761	1068.783819363836	318.304375855586	850.911608030867	811.920814189336	328.795731577294	1169.226993455685	1084.692987988931	889.048668887603	1411.620903811393	1014.797283499134	839.212850091521	
56	31.183214285714	851.828961841608	977.849720956011	629.390892126735	1011.310456373729	1405.519311643829	419.867178459529	1133.329834146063	1333.450639238419	564.879469524083	1080.137675367552	1412.067923977198	747.571789543605	1022.594936724734	1470.404521848852	575.240768136762	1099.494134589362	916.723963225881	705.403815799943	1040.227796782348	945.461863914789	438.767893546567	1157.178809872582	725.970442471478	649.592777283466	1100.788757798847	602.695098270515	706.999215775803	1167.683309665630	566.385743243953	608.922033360209	1177.789261071259	468.510137158394	607.621724146647	1146.081330395004	779.981264754260	466.789418360231	1109.778944300043	640.421015929450	386.578634035809	1223.353630559245	597.740954983558	455.165078406151	1249.046095954921	514.363844823998	441.722914416930	1198.966097570437	441.004151506986	423.355215195764	1074.708635781476	367.015253343166	370.853760838380	1103.447202641284	234.674215754131	408.538865484429	1128.863171750404	380.091389501921	616.771866528876	1047.156993814632	288.654440873085	686.170075861389	1055.818957327254	192.438788406943	616.768227632358	889.143103317027	45.022764055118	603.118898368812	1063.590659533040	95.734967405639	624.641997892418	977.229538920333	38.006517721871	671.438510835554	1184.621560064396	40.999564500009	646.425662819036	946.011210494588	111.453074192778	442.671788044548	1007.854603999661	97.764692375811	354.530078755280	1105.313700226904	134.435900638121	373.513473639988	1210.037753476729	58.306510711972	326.093480143536	881.590047524835	1075.131737544343	321.305668885447	829.175115160028	820.028216853004	336.946863729760	1185.074436636505	1089.796944809121	884.790088746997	1430.355656438556	1038.560282489565	828.562069666733	
